<?xml version="1.0" standalone="no"?>
<!DOCTYPE svg PUBLIC "-//W3C//DTD SVG 20010904//EN"
 "http://www.w3.org/TR/2001/REC-SVG-20010904/DTD/svg10.dtd">
<svg version="1.0" xmlns="http://www.w3.org/2000/svg"
 width="53.000000pt" height="48.000000pt" viewBox="0 0 53.000000 48.000000"
 preserveAspectRatio="xMidYMid meet">

<g transform="translate(0.000000,48.000000) scale(0.100000,-0.100000)"
fill="#000000" stroke="none">
<path d="M156 353 c-49 -200 -39 -181 -99 -186 -50 -4 -49 -4 8 -3 l59 1 30
125 c21 92 31 120 37 105 4 -11 20 -94 34 -185 30 -188 34 -205 44 -194 5 5
20 54 35 109 16 55 31 104 35 108 4 4 13 -11 20 -33 11 -38 14 -40 50 -40 23
0 44 -6 51 -15 20 -25 54 -15 58 16 2 17 -3 29 -12 32 -19 7 -46 -1 -46 -14 0
-5 -18 -9 -39 -9 -40 0 -40 1 -57 55 -10 30 -21 55 -24 55 -4 0 -19 -46 -35
-102 -15 -57 -31 -107 -35 -111 -4 -4 -22 84 -41 197 -18 114 -36 206 -39 206
-3 0 -19 -53 -34 -117z"/>
</g>
</svg>
