<?xml version="1.0" standalone="no"?>
<!DOCTYPE svg PUBLIC "-//W3C//DTD SVG 20010904//EN"
 "http://www.w3.org/TR/2001/REC-SVG-20010904/DTD/svg10.dtd">
<svg version="1.0" xmlns="http://www.w3.org/2000/svg"
 width="53.000000pt" height="23.000000pt" viewBox="0 0 53.000000 23.000000"
 preserveAspectRatio="xMidYMid meet">

<g transform="translate(0.000000,23.000000) scale(0.100000,-0.100000)"
fill="#000000" stroke="none">
<path d="M74 216 c-42 -19 -64 -52 -64 -99 0 -49 13 -73 50 -92 51 -26 95 -19
140 21 22 20 40 41 40 47 0 6 -15 -3 -32 -20 -59 -57 -108 -63 -155 -21 -64
59 -18 158 74 158 17 0 46 -20 91 -63 132 -124 150 -137 188 -137 42 0 89 23
104 49 17 33 12 96 -10 124 -45 57 -128 56 -185 -3 -42 -44 -22 -49 25 -6 44
39 74 45 119 21 70 -36 59 -137 -18 -166 -41 -16 -83 7 -166 92 -73 74 -124
110 -157 109 -7 -1 -27 -7 -44 -14z"/>
</g>
</svg>
