<?xml version="1.0" standalone="no"?>
<!DOCTYPE svg PUBLIC "-//W3C//DTD SVG 20010904//EN"
 "http://www.w3.org/TR/2001/REC-SVG-20010904/DTD/svg10.dtd">
<svg version="1.0" xmlns="http://www.w3.org/2000/svg"
 width="35.000000pt" height="53.000000pt" viewBox="0 0 35.000000 53.000000"
 preserveAspectRatio="xMidYMid meet">

<g transform="translate(0.000000,53.000000) scale(0.100000,-0.100000)"
fill="#000000" stroke="none">
<path d="M129 521 c-47 -15 -78 -42 -100 -88 -29 -59 -22 -110 26 -179 21 -30
39 -70 42 -94 l6 -40 72 0 72 0 6 39 c2 21 21 62 41 91 20 29 39 64 42 77 17
65 -19 149 -76 178 -36 19 -98 26 -131 16z m125 -31 c38 -24 76 -87 76 -124 0
-17 -18 -59 -41 -98 -23 -38 -44 -82 -48 -99 -10 -51 -26 -32 -29 36 -2 43 2
74 13 94 20 41 19 54 -3 16 -10 -17 -19 -62 -22 -105 -4 -67 -7 -75 -25 -75
-18 0 -21 8 -25 80 -3 44 -11 91 -18 103 -20 34 -26 19 -8 -17 17 -32 22 -156
7 -165 -5 -3 -13 13 -19 37 -6 23 -27 64 -46 92 -19 27 -38 62 -41 77 -10 42
12 93 56 132 34 32 45 36 92 36 35 0 62 -7 81 -20z"/>
<path d="M120 90 c0 -5 25 -10 55 -10 30 0 55 5 55 10 0 6 -25 10 -55 10 -30
0 -55 -4 -55 -10z"/>
<path d="M148 53 c18 -2 45 -2 60 0 15 2 0 4 -33 4 -33 0 -45 -2 -27 -4z"/>
<path d="M158 13 c12 -2 30 -2 40 0 9 3 -1 5 -23 4 -22 0 -30 -2 -17 -4z"/>
</g>
</svg>
